<?xml version="1.0" standalone="no"?>
<!DOCTYPE svg PUBLIC "-//W3C//DTD SVG 20010904//EN"
 "http://www.w3.org/TR/2001/REC-SVG-20010904/DTD/svg10.dtd">
<svg version="1.0" xmlns="http://www.w3.org/2000/svg"
 width="600.000000pt" height="600.000000pt" viewBox="0 0 600.000000 600.000000"
 preserveAspectRatio="xMidYMid meet">
<metadata>
Created by potrace 1.11, written by Peter Selinger 2001-2013
</metadata>
<g transform="translate(0.000000,600.000000) scale(0.100000,-0.100000)"
fill="#000000" stroke="none">
<path d="M0 3000 l0 -3000 3000 0 3000 0 0 3000 0 3000 -3000 0 -3000 0 0
-3000z m2690 1669 l0 -682 40 51 c113 142 296 226 516 239 184 10 347 -28 476
-114 76 -50 114 -91 157 -173 69 -129 66 -60 66 -1430 0 -1336 1 -1304 -55
-1462 -104 -297 -345 -448 -715 -448 -232 0 -377 50 -495 169 -36 36 -79 92
-95 124 -27 52 -31 55 -43 40 -37 -49 -86 -143 -107 -207 l-24 -71 -178 0
-178 0 -3 2323 -2 2322 320 0 320 0 0 -681z"/>
<path d="M2905 3796 c-97 -31 -161 -90 -192 -180 -17 -48 -18 -122 -18 -1161
0 -1209 -2 -1168 57 -1239 55 -67 96 -81 233 -81 114 0 123 1 174 30 62 34 95
73 122 145 18 48 19 89 19 1173 0 964 -2 1130 -15 1173 -19 66 -73 120 -139
139 -60 18 -186 18 -241 1z"/>
</g>
</svg>
